<?xml version="1.0" encoding="utf-8"?>
<!-- Generator: Adobe Illustrator 24.0.0, SVG Export Plug-In . SVG Version: 6.00 Build 0)  -->
<svg version="1.1" id="Livello_1" xmlns="http://www.w3.org/2000/svg" xmlns:xlink="http://www.w3.org/1999/xlink" x="0px" y="0px"
	 viewBox="0 0 120 60" style="enable-background:new 0 0 120 60;" xml:space="preserve">
<style type="text/css">
	.st0{fill:#1ED760;}
</style>
<path class="st0" d="M19.5,10.5C8.7,10.5,0,19.3,0,30c0,10.8,8.7,19.5,19.5,19.5c10.8,0,19.5-8.7,19.5-19.5S30.2,10.5,19.5,10.5
	L19.5,10.5z M28.4,38.6c-0.3,0.6-1.1,0.7-1.7,0.4c-4.6-2.8-10.3-3.4-17.1-1.9c-0.7,0.1-1.3-0.3-1.4-0.9c-0.1-0.6,0.3-1.3,0.9-1.4
	c7.4-1.7,13.8-1,18.9,2.2C28.5,37.3,28.7,38,28.4,38.6L28.4,38.6z M30.7,33.3c-0.4,0.7-1.4,0.9-2.1,0.5c-5.2-3.2-13.2-4.1-19.4-2.3
	c-0.8,0.2-1.6-0.2-1.9-1c-0.2-0.8,0.2-1.6,1-1.9c7.1-2.1,15.9-1.1,21.9,2.6C31,31.7,31.2,32.6,30.7,33.3L30.7,33.3z M31,27.8
	c-6.3-3.7-16.6-4.1-22.6-2.3c-1,0.3-2-0.3-2.3-1.2c-0.3-1,0.3-2,1.2-2.3c6.9-2.1,18.3-1.7,25.5,2.6c0.9,0.5,1.1,1.6,0.6,2.5
	C33,28,31.8,28.3,31,27.8L31,27.8z"/>
<g transform="matrix(.21375 0 0 .21375 .138028 12.655604)">
	<path class="st0" d="M228.7,78.4c-15.5-3.6-18.2-6.3-18.2-11.8c0-5.1,4.8-8.6,12-8.6c7,0,13.9,2.7,21.2,8c0.2,0.2,0.5,0.2,0.7,0.2
		c0.3,0,0.5-0.2,0.6-0.4l7.6-10.7c0.3-0.4,0.2-1.1-0.2-1.4c-8.7-7-18.4-10.3-29.8-10.3c-16.7,0-28.4,10.1-28.4,24.4
		c0,15.4,10.1,20.9,27.5,25.1c14.8,3.4,17.3,6.3,17.3,11.3c0,5.7-5,9.2-13.2,9.2c-9,0-16.4-3-24.6-10.2c-0.2-0.2-0.5-0.2-0.7-0.2
		c-0.3,0-0.5,0.1-0.6,0.3l-8.5,10.1c-0.3,0.4-0.3,1.1,0.1,1.4c9.6,8.6,21.4,13.1,34.1,13.1c18,0,29.7-9.8,29.7-25.1
		C255.3,90.1,247.6,83,228.7,78.4z M296.1,63.1c-7.8,0-14.2,3.1-19.5,9.4v-7.1c0-0.5-0.4-1-1-1h-13.8c-0.5,0-1,0.4-1,1v78.8
		c0,0.5,0.4,1,1,1h13.8c0.5,0,1-0.4,1-1v-24.8c5.2,5.9,11.7,8.8,19.5,8.8c14.5,0,29.2-11.1,29.2-32.5
		C325.2,74.4,310.5,63.1,296.1,63.1z M309.1,95.7c0,10.9-6.7,18.4-16.3,18.4c-9.5,0-16.6-7.9-16.6-18.4s7.2-18.4,16.6-18.4
		S309.1,85,309.1,95.7z M362.9,63.1c-18.6,0-33.3,14.3-33.3,32.8c0,18.2,14.6,32.4,33.1,32.4c18.7,0,33.4-14.3,33.4-32.7
		C396,77.5,381.5,63.1,362.9,63.1z M362.9,114.2c-10,0-17.4-8-17.4-18.5c0-10.6,7.3-18.3,17.2-18.3c10,0,17.6,8,17.6,18.6
		C380.1,106.5,372.8,114.2,362.9,114.2z M435.9,64.4h-15.2V48.8c0-0.5-0.4-1-1-1h-13.8c-0.5,0-1,0.4-1,1v15.6h-6.6c-0.5,0-1,0.4-1,1
		v11.9c0,0.5,0.4,1,1,1h6.6V109c0,12.4,6.2,18.7,18.4,18.7c4.9,0,9.1-1.1,13-3.2c0.3-0.2,0.5-0.5,0.5-0.9v-11.3
		c0-0.3-0.2-0.6-0.4-0.9c-0.3-0.2-0.6-0.2-1,0c-2.7,1.4-5.2,1.9-8.1,1.9c-4.5,0-6.4-2-6.4-6.5V78.3h15.2c0.5,0,1-0.4,1-1V65.5
		C436.9,64.8,436.5,64.4,435.9,64.4z M489.1,64.5v-1.9c0-5.7,2.1-8.1,7-8.1c2.9,0,5.2,0.5,7.8,1.4c0.3,0.1,0.6,0,1-0.1
		c0.2-0.2,0.4-0.5,0.4-0.9V43.2c0-0.4-0.3-0.9-0.7-1c-2.8-0.9-6.2-1.6-11.6-1.6c-12.8,0-19.6,7.2-19.6,20.9v2.9h-6.6
		c-0.5,0-1.1,0.4-1.1,1v12c0,0.5,0.4,1,1.1,1h6.6v47.5c0,0.5,0.4,1,1,1h13.8c0.5,0,1-0.4,1-1V78.3h13l19.8,47.5c-2.2,5-4.5,6-7.5,6
		c-2.5,0-5-0.7-7.6-2.1c-0.2-0.1-0.5-0.1-0.9-0.1c-0.2,0.1-0.5,0.3-0.6,0.5l-4.7,10.3c-0.2,0.5,0,1.1,0.4,1.3
		c4.9,2.7,9.3,3.7,14.8,3.7c10.3,0,15.8-4.8,20.9-17.6l24.1-62.1c0.1-0.3,0.1-0.6-0.1-1s-0.5-0.4-0.9-0.4h-14.5
		c-0.4,0-0.9,0.3-1,0.6l-14.8,42.2l-16.2-42.3c-0.1-0.4-0.5-0.6-1-0.6h-23.3L489.1,64.5z M458.2,64.4h-13.8c-0.5,0-1,0.4-1,1v60.5
		c0,0.5,0.4,1,1,1h13.8c0.5,0,1-0.4,1-1V65.5C459.3,64.8,458.8,64.4,458.2,64.4z"/>
	<circle class="st0" cx="451.4" cy="46.8" r="10"/>
</g>
</svg>
